<svg preserveAspectRatio="none" width="100%" height="100%" overflow="visible" style="display: block;" viewBox="0 0 301.166 20.7147" fill="none" xmlns="http://www.w3.org/2000/svg">
<g id="Group">
<path id="Vector" d="M11.3789 0.00547286C15.9791 0.00547286 18.8186 2.165 20.3625 4.65675L15.8258 6.93709C14.9745 5.61822 13.367 4.56615 11.3789 4.56615C7.94197 4.56615 5.51497 7.08811 5.51497 10.3601C5.51497 13.6321 7.94197 16.1541 11.3789 16.1541C13.0181 16.1541 14.4986 15.6155 15.3499 14.956V13.2747H10.5276V8.98083H20.6798V16.8135C18.4114 19.1844 15.3499 20.7147 11.3789 20.7147C5.10782 20.7147 0 16.7229 0 10.3601C0 3.99732 5.10782 0.00547286 11.3789 0.00547286Z" fill="var(--fill-0, #CC112C)"/>
<path id="Vector_2" d="M31.2656 13.5665H28.4896V20.3471H23.0698V0.332523H33.5974C38.2611 0.332523 40.9102 3.27229 40.9102 6.99231C40.9102 10.4757 38.6735 12.3332 36.7171 12.9927L41.0053 20.3471H34.7977L31.2656 13.5665ZM32.7831 4.6868H28.4949V9.18707H32.7831C34.2002 9.18707 35.4005 8.31621 35.4005 6.93693C35.4005 5.55766 34.2002 4.6868 32.7831 4.6868Z" fill="var(--fill-0, #CC112C)"/>
<path id="Vector_3" d="M56.5772 17.3218H47.8474L46.774 20.3522H40.8784L48.7886 0.337556H55.599L63.541 20.3522H57.6453L56.572 17.3218H56.5772ZM49.2645 12.9675H55.1602L52.1991 4.83279L49.2698 12.9675H49.2645Z" fill="var(--fill-0, #CC112C)"/>
<path id="Vector_4" d="M64.2972 0.332523H73.1222C79.7422 0.332523 84.5011 4.11294 84.5011 10.3247C84.5011 16.5365 79.7422 20.3471 73.1539 20.3471H64.2972V0.332523ZM73.1275 15.8469C76.8182 15.8469 78.9597 13.2947 78.9597 10.3247C78.9597 7.35474 77.0033 4.83279 73.1592 4.83279H69.7222V15.8469H73.1275Z" fill="var(--fill-0, #CC112C)"/>
<path id="Vector_5" d="M86.4258 0.332523H91.9407V12.0664C91.9407 14.4374 93.2626 16.1489 96.1972 16.1489C99.1319 16.1489 100.422 14.4374 100.422 12.0664V0.332523H105.937V12.2174C105.937 17.201 102.944 20.7096 96.1972 20.7096C89.4503 20.7096 86.4258 17.1708 86.4258 12.2476V0.332523Z" fill="var(--fill-0, #CC112C)"/>
<path id="Vector_6" d="M121.223 17.3218H112.494L111.42 20.3522H105.525L113.435 0.337556H120.245L128.187 20.3522H122.292L121.218 17.3218H121.223ZM113.911 12.9675H119.806L116.845 4.83279L113.916 12.9675H113.911Z" fill="var(--fill-0, #CC112C)"/>
<path id="Vector_7" d="M131.688 4.83279H125.792V0.332523H142.971V4.83279H137.107V20.3471H131.688V4.83279Z" fill="var(--fill-0, #CC112C)"/>
<path id="Vector_8" d="M144.769 0.332529H160.182V4.68178H150.189V8.01419H159.96V12.3936H150.189V15.9928H160.182V20.3421H144.769V0.327491V0.332529Z" fill="var(--fill-0, #CC112C)"/>
<path id="Vector_9" d="M168.754 10.3547C168.754 4.17309 173.671 2.70408e-05 179.974 2.70408e-05C185.209 2.70408e-05 187.916 2.73341 189.306 5.37115L184.643 7.47026C183.95 5.87956 182.152 4.5607 179.979 4.5607C176.701 4.5607 174.274 7.08266 174.274 10.3547C174.274 13.6267 176.701 16.1486 179.979 16.1486C182.152 16.1486 183.95 14.8298 184.643 13.2391L189.306 15.3382C187.953 17.9205 185.209 20.7093 179.974 20.7093C173.671 20.7093 168.754 16.506 168.754 10.3547Z" fill="var(--fill-0, #CC112C)"/>
<path id="Vector_10" d="M201.029 0.00429541C207.459 0.00429541 212.249 4.26797 212.249 10.3589C212.249 16.4499 207.459 20.7136 201.029 20.7136C194.599 20.7136 189.777 16.4499 189.777 10.3589C189.777 4.26797 194.599 0.00429541 201.029 0.00429541ZM201.029 4.56497C197.529 4.56497 195.292 7.08693 195.292 10.3589C195.292 13.6309 197.529 16.1529 201.029 16.1529C204.529 16.1529 206.734 13.6007 206.734 10.3589C206.734 7.11713 204.498 4.56497 201.029 4.56497Z" fill="var(--fill-0, #CC112C)"/>
<path id="Vector_11" d="M214.206 0.332523H219.626V15.8469H228.075V20.3471H214.206V0.332523Z" fill="var(--fill-0, #CC112C)"/>
<path id="Vector_12" d="M230.09 0.332523H235.509V15.8469H243.959V20.3471H230.09V0.332523Z" fill="var(--fill-0, #CC112C)"/>
<path id="Vector_13" d="M245.974 0.332529H261.387V4.68178H251.393V8.01419H261.165V12.3936H251.393V15.9928H261.387V20.3421H245.974V0.327491V0.332529Z" fill="var(--fill-0, #CC112C)"/>
<path id="Vector_14" d="M274.061 0.00429541C278.662 0.00429541 281.501 2.16382 283.045 4.65558L278.508 6.93591C277.657 5.61704 276.05 4.56497 274.061 4.56497C270.624 4.56497 268.197 7.08693 268.197 10.3589C268.197 13.6309 270.624 16.1529 274.061 16.1529C275.701 16.1529 277.181 15.6143 278.032 14.9548V13.2735H273.21V8.97965H283.362V16.8123C281.094 19.1833 278.032 20.7136 274.061 20.7136C267.79 20.7136 262.682 16.7217 262.682 10.3589C262.682 3.99614 267.79 0.00429541 274.061 0.00429541Z" fill="var(--fill-0, #CC112C)"/>
<path id="Vector_15" d="M285.752 0.332529H301.166V4.68178H291.172V8.01419H300.944V12.3936H291.172V15.9928H301.166V20.3421H285.752V0.327491V0.332529Z" fill="var(--fill-0, #CC112C)"/>
</g>
</svg>
